<svg xmlns="http://www.w3.org/2000/svg" viewBox="0 0 38.9 30.41"><defs><style>.cls-1{fill:#fff;}</style></defs><g id="Layer_2" data-name="Layer 2"><g id="Layer_1-2" data-name="Layer 1"><path class="cls-1" d="M22,15.12c-.1.32-.2.62-.3.93a20.25,20.25,0,0,0-.93,5.06,14.71,14.71,0,0,0,.14,3.11,8.24,8.24,0,0,0,1,3,4.29,4.29,0,0,0,4.54,2.07,4.48,4.48,0,0,0,2.68-1.66A8.8,8.8,0,0,0,30.57,25a14.84,14.84,0,0,0,.85-3.46,8.08,8.08,0,0,0,0-.85c0-.15-.09-.22-.24-.22s-.2.1-.22.23,0,.11,0,.16A13.86,13.86,0,0,1,30.43,24a9.7,9.7,0,0,1-1.55,3.18,3.93,3.93,0,0,1-3.13,1.71,3.3,3.3,0,0,1-3.41-2.22,7.2,7.2,0,0,1-.5-2.52,14.12,14.12,0,0,1,.22-2.9A32.16,32.16,0,0,1,24,14.54a.28.28,0,0,1,.15-.13l1.4-.54a35.54,35.54,0,0,0,4.18-2,33,33,0,0,0,5-3.32,17.46,17.46,0,0,0,3.16-3.21,5,5,0,0,0,1.08-2.48,1.29,1.29,0,0,0-1.08-1.52,5.93,5.93,0,0,0-1.88,0A10.65,10.65,0,0,0,33.58,2a13,13,0,0,0-3.06,1.55s-.09.1-.08.14c0,.25.07.51.11.78l.1-.07A13.59,13.59,0,0,1,32.57,3a8.71,8.71,0,0,1,4.8-1.24c.74,0,1.17.35,1,1.2a3.59,3.59,0,0,1-.34,1A10.09,10.09,0,0,1,36,6.76a28.57,28.57,0,0,1-5.43,4.1,38.34,38.34,0,0,1-5.76,2.81l-.52.2,0,0c.38-.79.73-1.59,1.13-2.37a27.13,27.13,0,0,1,3.36-5.15L28,5.56l-.2.19a24.58,24.58,0,0,0-5.51,8.58.43.43,0,0,1-.32.29l-3.35.84-.49.09.14-.3,1.58-3.42c.73-1.56,1.44-3.14,2.2-4.69a15.23,15.23,0,0,1,2.57-3.8,5.9,5.9,0,0,1,2.29-1.55c.24-.08.49-.14.74-.21a.21.21,0,0,0,.18-.28c0-.14-.13-.18-.26-.17l-.14,0a7,7,0,0,1-1.82.23c-.9,0-1.81,0-2.71-.06A24.93,24.93,0,0,1,19.28.8a31.87,31.87,0,0,0-5-.78,12,12,0,0,0-3.27.23A7.89,7.89,0,0,0,6.88,2.62,7.4,7.4,0,0,0,5.1,9.91,5.24,5.24,0,0,0,8,13.37a6.52,6.52,0,0,0,3.77.52,5.5,5.5,0,0,0,4.77-4.13,6,6,0,0,0,.19-2.47,6.16,6.16,0,0,0-.38-1.74.25.25,0,0,0-.32-.17c-.13,0-.17.18-.11.34A6.41,6.41,0,0,1,16,9.89a5,5,0,0,1-2.56,3,6,6,0,0,1-4,.44,4.94,4.94,0,0,1-4-3.65A6.47,6.47,0,0,1,5.53,6,7.17,7.17,0,0,1,9,1.56a8.34,8.34,0,0,1,3.48-1,14.56,14.56,0,0,1,3.73.17c1.11.19,2.21.44,3.32.63s2.15.35,3.23.46c.89.08,1.78.06,2.67.09h.18c-.33.29-.67.54-1,.79A14.51,14.51,0,0,0,22,5.39a38,38,0,0,0-3.79,6.3c-.68,1.39-1.33,2.79-2,4.18a.33.33,0,0,1-.23.2c-.63.19-1.27.37-1.9.59A10.11,10.11,0,0,0,11.37,18a4,4,0,0,0-1.71,2.33c-.05.2,0,.31.14.35s.25,0,.3-.22a3,3,0,0,1,.48-1A5.52,5.52,0,0,1,12.36,18a16.7,16.7,0,0,1,3.41-1.35.4.4,0,0,1,.11,0l-.52,1.12a56.92,56.92,0,0,1-2.63,5.09,16.47,16.47,0,0,1-3.45,4.25,7.12,7.12,0,0,1-5.4,1.75A3.47,3.47,0,0,1,1.5,27.64a2.59,2.59,0,0,1-.72-1.9A5.92,5.92,0,0,1,1.24,24c.15-.37.3-.74.43-1.11a.45.45,0,0,0-.12-.52A.49.49,0,0,0,1,22.29a1,1,0,0,0-.56.54A4.1,4.1,0,0,0,0,25a4.86,4.86,0,0,0,.59,2.13,3.86,3.86,0,0,0,2.54,2,6.58,6.58,0,0,0,3.12,0A10.32,10.32,0,0,0,11,26.48,23.82,23.82,0,0,0,14.62,22a51.1,51.1,0,0,0,3.2-5.8.26.26,0,0,1,.22-.17l2.81-.63C21.23,15.34,21.6,15.23,22,15.12Zm.62,15-.38,0a2.38,2.38,0,0,1-1.16-.35,2,2,0,0,1-.8-1.32,10.2,10.2,0,0,1-.17-2.2c0-3.34,0-6.68,0-10V16s-.05,0-.06,0l-1.83.39a.11.11,0,0,0-.09,0,1.7,1.7,0,0,0-.26.69c0,3.26,0,6.53,0,9.79a6,6,0,0,1-.24,1.84A1.7,1.7,0,0,1,16.27,30c-.3.06-.6.09-.91.13v.29h7.25ZM7.09,9c.17.06.26,0,.3-.14l.08-.16A14.15,14.15,0,0,1,8.91,6.06,5.73,5.73,0,0,1,13,3.64c.83-.09,1.67-.07,2.51-.08a3.34,3.34,0,0,1,.7.08A1.67,1.67,0,0,1,17.59,4.8a5.94,5.94,0,0,1,.26,1.82c0,1.59,0,3.19,0,4.78v.16l.07-.1c.65-1.3,1.34-2.58,2.11-3.82a.33.33,0,0,0,.05-.16c0-.19,0-.37,0-.55a17.78,17.78,0,0,1,.18-1.79A1.74,1.74,0,0,1,22,3.59c.31,0,.63,0,.95,0,.05,0,.12,0,.15,0s.26-.26.41-.41H8ZM24.85,3.62l.12,0a6.28,6.28,0,0,1,4,2.43,12.9,12.9,0,0,1,1.62,2.75.2.2,0,0,0,.3.13L30,3.11H25.48a.25.25,0,0,0-.16.06ZM18.76,15.08l1.32-.3V12.26h0Z"/><path class="cls-1" d="M22,15.12c-.39.11-.76.22-1.14.31L18,16.06a.26.26,0,0,0-.22.17,51.1,51.1,0,0,1-3.2,5.8A23.82,23.82,0,0,1,11,26.48a10.32,10.32,0,0,1-4.75,2.64,6.58,6.58,0,0,1-3.12,0,3.86,3.86,0,0,1-2.54-2A4.86,4.86,0,0,1,0,25a4.1,4.1,0,0,1,.46-2.17A1,1,0,0,1,1,22.29a.49.49,0,0,1,.53.05.45.45,0,0,1,.12.52c-.13.37-.28.74-.43,1.11a5.92,5.92,0,0,0-.46,1.77,2.59,2.59,0,0,0,.72,1.9,3.47,3.47,0,0,0,2.38,1.17,7.12,7.12,0,0,0,5.4-1.75,16.47,16.47,0,0,0,3.45-4.25,56.92,56.92,0,0,0,2.63-5.09l.52-1.12a.4.4,0,0,0-.11,0A16.7,16.7,0,0,0,12.36,18a5.52,5.52,0,0,0-1.78,1.51,3,3,0,0,0-.48,1c0,.18-.16.26-.3.22s-.19-.15-.14-.35A4,4,0,0,1,11.37,18a10.11,10.11,0,0,1,2.72-1.38c.63-.22,1.27-.4,1.9-.59a.33.33,0,0,0,.23-.2c.66-1.39,1.31-2.79,2-4.18A38,38,0,0,1,22,5.39a14.51,14.51,0,0,1,2.57-2.74c.33-.25.67-.5,1-.79h-.18c-.89,0-1.78,0-2.67-.09-1.08-.11-2.16-.28-3.23-.46S17.28.87,16.17.68A14.56,14.56,0,0,0,12.44.51,8.34,8.34,0,0,0,9,1.56,7.17,7.17,0,0,0,5.53,6a6.47,6.47,0,0,0,0,3.75,4.94,4.94,0,0,0,4,3.65,6,6,0,0,0,4-.44,5,5,0,0,0,2.56-3,6.41,6.41,0,0,0-.09-4.17c-.06-.16,0-.29.11-.34a.25.25,0,0,1,.32.17,6.16,6.16,0,0,1,.38,1.74,6,6,0,0,1-.19,2.47,5.5,5.5,0,0,1-4.77,4.13A6.52,6.52,0,0,1,8,13.37,5.24,5.24,0,0,1,5.1,9.91,7.4,7.4,0,0,1,6.88,2.62,7.89,7.89,0,0,1,11.06.25,12,12,0,0,1,14.33,0a31.87,31.87,0,0,1,5,.78,24.93,24.93,0,0,0,3.64.52c.9,0,1.81.05,2.71.06a7,7,0,0,0,1.82-.23l.14,0c.13,0,.24,0,.26.17a.21.21,0,0,1-.18.28c-.25.07-.5.13-.74.21a5.9,5.9,0,0,0-2.29,1.55,15.23,15.23,0,0,0-2.57,3.8c-.76,1.55-1.47,3.13-2.2,4.69l-1.58,3.42-.14.3.49-.09L22,14.62a.43.43,0,0,0,.32-.29,24.58,24.58,0,0,1,5.51-8.58l.2-.19.69.75a27.13,27.13,0,0,0-3.36,5.15c-.4.78-.75,1.58-1.13,2.37l0,0,.52-.2a38.34,38.34,0,0,0,5.76-2.81A28.57,28.57,0,0,0,36,6.76,10.09,10.09,0,0,0,38.07,4a3.59,3.59,0,0,0,.34-1c.13-.85-.3-1.18-1-1.2A8.71,8.71,0,0,0,32.57,3a13.59,13.59,0,0,0-1.92,1.36l-.1.07c0-.27-.08-.53-.11-.78,0,0,0-.11.08-.14A13,13,0,0,1,33.58,2a10.65,10.65,0,0,1,2.35-.59,5.93,5.93,0,0,1,1.88,0,1.29,1.29,0,0,1,1.08,1.52,5,5,0,0,1-1.08,2.48,17.46,17.46,0,0,1-3.16,3.21,33,33,0,0,1-5,3.32,35.54,35.54,0,0,1-4.18,2l-1.4.54a.28.28,0,0,0-.15.13,32.16,32.16,0,0,0-1.9,6.67,14.12,14.12,0,0,0-.22,2.9,7.2,7.2,0,0,0,.5,2.52,3.3,3.3,0,0,0,3.41,2.22,3.93,3.93,0,0,0,3.13-1.71A9.7,9.7,0,0,0,30.43,24,13.86,13.86,0,0,0,31,20.84c0-.05,0-.11,0-.16s.07-.22.22-.23.24.07.24.22a8.08,8.08,0,0,1,0,.85A14.84,14.84,0,0,1,30.57,25a8.8,8.8,0,0,1-1.45,2.61,4.48,4.48,0,0,1-2.68,1.66,4.29,4.29,0,0,1-4.54-2.07,8.24,8.24,0,0,1-1-3,14.71,14.71,0,0,1-.14-3.11,20.25,20.25,0,0,1,.93-5.06C21.79,15.74,21.89,15.44,22,15.12Z"/><path class="cls-1" d="M22.61,30.1v.31H15.36v-.29c.31,0,.61-.07.91-.13a1.7,1.7,0,0,0,1.34-1.25,6,6,0,0,0,.24-1.84c0-3.26,0-6.53,0-9.79a1.7,1.7,0,0,1,.26-.69.11.11,0,0,1,.09,0L20,16s0,0,.06,0v.2c0,3.33,0,6.67,0,10a10.2,10.2,0,0,0,.17,2.2,2,2,0,0,0,.8,1.32,2.38,2.38,0,0,0,1.16.35Z"/><path class="cls-1" d="M7.09,9,8,3.11H23.52c-.15.15-.27.29-.41.41s-.1,0-.15,0c-.32,0-.64,0-.95,0a1.74,1.74,0,0,0-1.72,1.55,17.78,17.78,0,0,0-.18,1.79c0,.18,0,.36,0,.55a.33.33,0,0,1-.05.16c-.77,1.24-1.46,2.52-2.11,3.82l-.07.1V11.4c0-1.59,0-3.19,0-4.78a5.94,5.94,0,0,0-.26-1.82,1.67,1.67,0,0,0-1.34-1.16,3.34,3.34,0,0,0-.7-.08c-.84,0-1.68,0-2.51.08A5.73,5.73,0,0,0,8.91,6.06,14.15,14.15,0,0,0,7.47,8.67l-.08.16C7.35,9,7.26,9,7.09,9Z"/><path class="cls-1" d="M24.85,3.62l.47-.46a.25.25,0,0,1,.16-.06H30L30.88,9a.2.2,0,0,1-.3-.13A12.9,12.9,0,0,0,29,6.09a6.28,6.28,0,0,0-4-2.43Z"/><path class="cls-1" d="M18.76,15.08l1.3-2.83h0v2.52Z"/></g></g></svg>